<mxfile host="Electron" modified="2024-05-27T14:05:07.289Z" agent="Mozilla/5.0 (Macintosh; Intel Mac OS X 10_15_7) AppleWebKit/537.36 (KHTML, like Gecko) draw.io/24.4.8 Chrome/124.0.6367.207 Electron/30.0.6 Safari/537.36" etag="IOpPpaOdC9svbeh0yuMn" version="24.4.8" type="device">
  <diagram name="Page-1" id="M6lCg9FNZWQKJzQgkxno">
    <mxGraphModel dx="1306" dy="2003" grid="1" gridSize="10" guides="1" tooltips="1" connect="1" arrows="1" fold="1" page="1" pageScale="1" pageWidth="827" pageHeight="1169" math="0" shadow="0">
      <root>
        <mxCell id="0" />
        <mxCell id="1" parent="0" />
        <mxCell id="I3yNbvI_W-anKSS0VZ_J-39" style="edgeStyle=orthogonalEdgeStyle;rounded=0;orthogonalLoop=1;jettySize=auto;html=1;entryX=0;entryY=0.5;entryDx=0;entryDy=0;endArrow=none;endFill=0;" parent="1" source="I3yNbvI_W-anKSS0VZ_J-1" target="I3yNbvI_W-anKSS0VZ_J-13" edge="1">
          <mxGeometry relative="1" as="geometry" />
        </mxCell>
        <mxCell id="I3yNbvI_W-anKSS0VZ_J-40" style="edgeStyle=orthogonalEdgeStyle;rounded=0;orthogonalLoop=1;jettySize=auto;html=1;entryX=0;entryY=0.5;entryDx=0;entryDy=0;endArrow=none;endFill=0;" parent="1" source="I3yNbvI_W-anKSS0VZ_J-1" target="I3yNbvI_W-anKSS0VZ_J-14" edge="1">
          <mxGeometry relative="1" as="geometry" />
        </mxCell>
        <mxCell id="I3yNbvI_W-anKSS0VZ_J-1" value="Administrateur&lt;br&gt;(interne)" style="shape=umlActor;verticalLabelPosition=bottom;verticalAlign=top;html=1;outlineConnect=0;" parent="1" vertex="1">
          <mxGeometry x="110" y="-105" width="30" height="60" as="geometry" />
        </mxCell>
        <mxCell id="I3yNbvI_W-anKSS0VZ_J-49" style="edgeStyle=orthogonalEdgeStyle;rounded=0;orthogonalLoop=1;jettySize=auto;html=1;entryX=1;entryY=0.5;entryDx=0;entryDy=0;endArrow=none;endFill=0;" parent="1" source="I3yNbvI_W-anKSS0VZ_J-2" target="I3yNbvI_W-anKSS0VZ_J-31" edge="1">
          <mxGeometry relative="1" as="geometry" />
        </mxCell>
        <mxCell id="I3yNbvI_W-anKSS0VZ_J-50" style="edgeStyle=orthogonalEdgeStyle;rounded=0;orthogonalLoop=1;jettySize=auto;html=1;entryX=1;entryY=0.5;entryDx=0;entryDy=0;endArrow=none;endFill=0;" parent="1" source="I3yNbvI_W-anKSS0VZ_J-2" target="I3yNbvI_W-anKSS0VZ_J-32" edge="1">
          <mxGeometry relative="1" as="geometry" />
        </mxCell>
        <mxCell id="I3yNbvI_W-anKSS0VZ_J-2" value="Organisateur&lt;br&gt;(interne)" style="shape=umlActor;verticalLabelPosition=bottom;verticalAlign=top;html=1;outlineConnect=0;" parent="1" vertex="1">
          <mxGeometry x="1241" y="665" width="30" height="60" as="geometry" />
        </mxCell>
        <mxCell id="n2cofynIL0gXf2lMp7zA-1" style="edgeStyle=orthogonalEdgeStyle;rounded=0;orthogonalLoop=1;jettySize=auto;html=1;entryX=1;entryY=0.5;entryDx=0;entryDy=0;endArrow=none;endFill=0;" parent="1" source="I3yNbvI_W-anKSS0VZ_J-3" target="I3yNbvI_W-anKSS0VZ_J-15" edge="1">
          <mxGeometry relative="1" as="geometry" />
        </mxCell>
        <mxCell id="n2cofynIL0gXf2lMp7zA-2" style="edgeStyle=orthogonalEdgeStyle;rounded=0;orthogonalLoop=1;jettySize=auto;html=1;entryX=1;entryY=0.5;entryDx=0;entryDy=0;endArrow=none;endFill=0;" parent="1" source="I3yNbvI_W-anKSS0VZ_J-3" target="I3yNbvI_W-anKSS0VZ_J-16" edge="1">
          <mxGeometry relative="1" as="geometry" />
        </mxCell>
        <mxCell id="n2cofynIL0gXf2lMp7zA-3" style="edgeStyle=orthogonalEdgeStyle;rounded=0;orthogonalLoop=1;jettySize=auto;html=1;entryX=1;entryY=0.5;entryDx=0;entryDy=0;endArrow=none;endFill=0;" parent="1" source="I3yNbvI_W-anKSS0VZ_J-3" target="I3yNbvI_W-anKSS0VZ_J-19" edge="1">
          <mxGeometry relative="1" as="geometry" />
        </mxCell>
        <mxCell id="n2cofynIL0gXf2lMp7zA-4" style="edgeStyle=orthogonalEdgeStyle;rounded=0;orthogonalLoop=1;jettySize=auto;html=1;entryX=1;entryY=0.5;entryDx=0;entryDy=0;endArrow=none;endFill=0;" parent="1" source="I3yNbvI_W-anKSS0VZ_J-3" target="I3yNbvI_W-anKSS0VZ_J-20" edge="1">
          <mxGeometry relative="1" as="geometry" />
        </mxCell>
        <mxCell id="n2cofynIL0gXf2lMp7zA-5" style="edgeStyle=orthogonalEdgeStyle;rounded=0;orthogonalLoop=1;jettySize=auto;html=1;entryX=1;entryY=0.5;entryDx=0;entryDy=0;endArrow=none;endFill=0;" parent="1" source="I3yNbvI_W-anKSS0VZ_J-3" target="I3yNbvI_W-anKSS0VZ_J-17" edge="1">
          <mxGeometry relative="1" as="geometry" />
        </mxCell>
        <mxCell id="n2cofynIL0gXf2lMp7zA-6" style="edgeStyle=orthogonalEdgeStyle;rounded=0;orthogonalLoop=1;jettySize=auto;html=1;entryX=1;entryY=0.5;entryDx=0;entryDy=0;endArrow=none;endFill=0;" parent="1" source="I3yNbvI_W-anKSS0VZ_J-3" target="I3yNbvI_W-anKSS0VZ_J-18" edge="1">
          <mxGeometry relative="1" as="geometry" />
        </mxCell>
        <mxCell id="I3yNbvI_W-anKSS0VZ_J-3" value="Entreprise cliente&lt;br&gt;(interne)" style="shape=umlActor;verticalLabelPosition=bottom;verticalAlign=top;html=1;outlineConnect=0;" parent="1" vertex="1">
          <mxGeometry x="1241" y="230" width="30" height="60" as="geometry" />
        </mxCell>
        <mxCell id="I3yNbvI_W-anKSS0VZ_J-47" style="edgeStyle=orthogonalEdgeStyle;rounded=0;orthogonalLoop=1;jettySize=auto;html=1;entryX=0;entryY=0.5;entryDx=0;entryDy=0;endArrow=none;endFill=0;" parent="1" source="I3yNbvI_W-anKSS0VZ_J-4" target="I3yNbvI_W-anKSS0VZ_J-24" edge="1">
          <mxGeometry relative="1" as="geometry" />
        </mxCell>
        <mxCell id="I3yNbvI_W-anKSS0VZ_J-48" style="edgeStyle=orthogonalEdgeStyle;rounded=0;orthogonalLoop=1;jettySize=auto;html=1;entryX=0;entryY=0.5;entryDx=0;entryDy=0;endArrow=none;endFill=0;" parent="1" source="I3yNbvI_W-anKSS0VZ_J-4" target="I3yNbvI_W-anKSS0VZ_J-25" edge="1">
          <mxGeometry relative="1" as="geometry" />
        </mxCell>
        <mxCell id="I3yNbvI_W-anKSS0VZ_J-4" value="Fournisseur&lt;br&gt;(externe)" style="shape=umlActor;verticalLabelPosition=bottom;verticalAlign=top;html=1;outlineConnect=0;" parent="1" vertex="1">
          <mxGeometry x="110" y="195" width="30" height="60" as="geometry" />
        </mxCell>
        <mxCell id="I3yNbvI_W-anKSS0VZ_J-55" style="edgeStyle=orthogonalEdgeStyle;rounded=0;orthogonalLoop=1;jettySize=auto;html=1;entryX=0;entryY=0.5;entryDx=0;entryDy=0;endArrow=none;endFill=0;" parent="1" source="I3yNbvI_W-anKSS0VZ_J-7" target="I3yNbvI_W-anKSS0VZ_J-22" edge="1">
          <mxGeometry relative="1" as="geometry" />
        </mxCell>
        <mxCell id="I3yNbvI_W-anKSS0VZ_J-56" style="edgeStyle=orthogonalEdgeStyle;rounded=0;orthogonalLoop=1;jettySize=auto;html=1;entryX=0;entryY=0.5;entryDx=0;entryDy=0;endArrow=none;endFill=0;" parent="1" source="I3yNbvI_W-anKSS0VZ_J-7" target="I3yNbvI_W-anKSS0VZ_J-21" edge="1">
          <mxGeometry relative="1" as="geometry" />
        </mxCell>
        <mxCell id="I3yNbvI_W-anKSS0VZ_J-57" style="edgeStyle=orthogonalEdgeStyle;rounded=0;orthogonalLoop=1;jettySize=auto;html=1;entryX=0;entryY=0.5;entryDx=0;entryDy=0;endArrow=none;endFill=0;" parent="1" source="I3yNbvI_W-anKSS0VZ_J-7" target="I3yNbvI_W-anKSS0VZ_J-26" edge="1">
          <mxGeometry relative="1" as="geometry" />
        </mxCell>
        <mxCell id="I3yNbvI_W-anKSS0VZ_J-58" style="edgeStyle=orthogonalEdgeStyle;rounded=0;orthogonalLoop=1;jettySize=auto;html=1;entryX=0;entryY=0.5;entryDx=0;entryDy=0;endArrow=none;endFill=0;" parent="1" source="I3yNbvI_W-anKSS0VZ_J-7" target="I3yNbvI_W-anKSS0VZ_J-23" edge="1">
          <mxGeometry relative="1" as="geometry" />
        </mxCell>
        <mxCell id="I3yNbvI_W-anKSS0VZ_J-7" value="Participant&lt;div&gt;(externe)&lt;/div&gt;" style="shape=umlActor;verticalLabelPosition=bottom;verticalAlign=top;html=1;outlineConnect=0;" parent="1" vertex="1">
          <mxGeometry x="110" y="605" width="30" height="60" as="geometry" />
        </mxCell>
        <mxCell id="I3yNbvI_W-anKSS0VZ_J-13" value="Gérer les comptes utilisateurs" style="ellipse;html=1;whiteSpace=wrap;" parent="1" vertex="1">
          <mxGeometry x="330" y="-150" width="220" height="70" as="geometry" />
        </mxCell>
        <mxCell id="I3yNbvI_W-anKSS0VZ_J-14" value="Configurer les paramètres du système" style="ellipse;html=1;whiteSpace=wrap;" parent="1" vertex="1">
          <mxGeometry x="330" y="-60" width="220" height="70" as="geometry" />
        </mxCell>
        <mxCell id="I3yNbvI_W-anKSS0VZ_J-24" value="Recevoir des notifications de service" style="ellipse;html=1;whiteSpace=wrap;" parent="1" vertex="1">
          <mxGeometry x="326" y="150" width="220" height="70" as="geometry" />
        </mxCell>
        <mxCell id="I3yNbvI_W-anKSS0VZ_J-25" value="Gérer les engagements de service" style="ellipse;html=1;whiteSpace=wrap;" parent="1" vertex="1">
          <mxGeometry x="326" y="250" width="220" height="70" as="geometry" />
        </mxCell>
        <mxCell id="I3yNbvI_W-anKSS0VZ_J-29" value="&lt;b&gt;Gestion de l&#39;événement&lt;/b&gt;" style="shape=umlFrame;whiteSpace=wrap;html=1;pointerEvents=0;recursiveResize=0;container=1;collapsible=0;width=160;" parent="1" vertex="1">
          <mxGeometry x="760" y="-200" width="320" height="450" as="geometry" />
        </mxCell>
        <mxCell id="I3yNbvI_W-anKSS0VZ_J-15" value="Planifier un événement" style="ellipse;html=1;whiteSpace=wrap;" parent="I3yNbvI_W-anKSS0VZ_J-29" vertex="1">
          <mxGeometry x="40" y="50" width="220" height="70" as="geometry" />
        </mxCell>
        <mxCell id="I3yNbvI_W-anKSS0VZ_J-16" value="Gérer les réservations de lieux" style="ellipse;html=1;whiteSpace=wrap;" parent="I3yNbvI_W-anKSS0VZ_J-29" vertex="1">
          <mxGeometry x="40" y="150" width="220" height="70" as="geometry" />
        </mxCell>
        <mxCell id="I3yNbvI_W-anKSS0VZ_J-20" value="Analyser les retours post-événement" style="ellipse;html=1;whiteSpace=wrap;" parent="I3yNbvI_W-anKSS0VZ_J-29" vertex="1">
          <mxGeometry x="40" y="350" width="220" height="70" as="geometry" />
        </mxCell>
        <mxCell id="I3yNbvI_W-anKSS0VZ_J-19" value="Gérer le budget de l&#39;événement" style="ellipse;html=1;whiteSpace=wrap;" parent="I3yNbvI_W-anKSS0VZ_J-29" vertex="1">
          <mxGeometry x="40" y="250" width="220" height="70" as="geometry" />
        </mxCell>
        <mxCell id="I3yNbvI_W-anKSS0VZ_J-30" value="&lt;b&gt;Gestion des participants&lt;/b&gt;" style="shape=umlFrame;whiteSpace=wrap;html=1;pointerEvents=0;recursiveResize=0;container=1;collapsible=0;width=160;" parent="1" vertex="1">
          <mxGeometry x="760" y="280" width="320" height="250" as="geometry" />
        </mxCell>
        <mxCell id="I3yNbvI_W-anKSS0VZ_J-17" value="Inscrire les participants" style="ellipse;html=1;whiteSpace=wrap;" parent="I3yNbvI_W-anKSS0VZ_J-30" vertex="1">
          <mxGeometry x="40" y="50" width="220" height="70" as="geometry" />
        </mxCell>
        <mxCell id="I3yNbvI_W-anKSS0VZ_J-18" value="Communiquer avec les participants" style="ellipse;html=1;whiteSpace=wrap;" parent="I3yNbvI_W-anKSS0VZ_J-30" vertex="1">
          <mxGeometry x="40" y="150" width="220" height="70" as="geometry" />
        </mxCell>
        <mxCell id="I3yNbvI_W-anKSS0VZ_J-33" value="&lt;b&gt;Collaboration et communication&lt;/b&gt;" style="shape=umlFrame;whiteSpace=wrap;html=1;pointerEvents=0;recursiveResize=0;container=1;collapsible=0;width=200;height=30;" parent="1" vertex="1">
          <mxGeometry x="760" y="570" width="320" height="250" as="geometry" />
        </mxCell>
        <mxCell id="I3yNbvI_W-anKSS0VZ_J-31" value="Interagir avec les fournisseurs" style="ellipse;html=1;whiteSpace=wrap;" parent="I3yNbvI_W-anKSS0VZ_J-33" vertex="1">
          <mxGeometry x="40" y="50" width="220" height="70" as="geometry" />
        </mxCell>
        <mxCell id="I3yNbvI_W-anKSS0VZ_J-32" value="Utiliser des outils de communication interne" style="ellipse;html=1;whiteSpace=wrap;" parent="I3yNbvI_W-anKSS0VZ_J-33" vertex="1">
          <mxGeometry x="40" y="145" width="220" height="70" as="geometry" />
        </mxCell>
        <mxCell id="I3yNbvI_W-anKSS0VZ_J-34" value="&lt;b&gt;Administration du système&lt;/b&gt;" style="shape=umlFrame;whiteSpace=wrap;html=1;pointerEvents=0;recursiveResize=0;container=1;collapsible=0;width=200;height=30;" parent="1" vertex="1">
          <mxGeometry x="280" y="-200" width="320" height="250" as="geometry" />
        </mxCell>
        <mxCell id="I3yNbvI_W-anKSS0VZ_J-35" value="&lt;b&gt;Participation aux événements&lt;/b&gt;" style="shape=umlFrame;whiteSpace=wrap;html=1;pointerEvents=0;recursiveResize=0;container=1;collapsible=0;width=220;height=30;" parent="1" vertex="1">
          <mxGeometry x="280" y="400" width="320" height="450" as="geometry" />
        </mxCell>
        <mxCell id="I3yNbvI_W-anKSS0VZ_J-21" value="Accéder aux détails de l&#39;événement" style="ellipse;html=1;whiteSpace=wrap;" parent="I3yNbvI_W-anKSS0VZ_J-35" vertex="1">
          <mxGeometry x="60" y="160" width="220" height="70" as="geometry" />
        </mxCell>
        <mxCell id="I3yNbvI_W-anKSS0VZ_J-22" value="S&#39;inscrire à l&#39;événement" style="ellipse;html=1;whiteSpace=wrap;" parent="I3yNbvI_W-anKSS0VZ_J-35" vertex="1">
          <mxGeometry x="60" y="60" width="220" height="70" as="geometry" />
        </mxCell>
        <mxCell id="I3yNbvI_W-anKSS0VZ_J-23" value="Soumettre des feedbacks" style="ellipse;html=1;whiteSpace=wrap;" parent="I3yNbvI_W-anKSS0VZ_J-35" vertex="1">
          <mxGeometry x="60" y="340" width="220" height="70" as="geometry" />
        </mxCell>
        <mxCell id="I3yNbvI_W-anKSS0VZ_J-26" value="Recevoir des informations et des mises à jour" style="ellipse;html=1;whiteSpace=wrap;" parent="I3yNbvI_W-anKSS0VZ_J-35" vertex="1">
          <mxGeometry x="60" y="250" width="220" height="70" as="geometry" />
        </mxCell>
        <mxCell id="I3yNbvI_W-anKSS0VZ_J-38" value="&lt;b&gt;Fourniture de services&lt;/b&gt;" style="shape=umlFrame;whiteSpace=wrap;html=1;pointerEvents=0;recursiveResize=0;container=1;collapsible=0;width=200;height=30;" parent="1" vertex="1">
          <mxGeometry x="280" y="100" width="320" height="250" as="geometry" />
        </mxCell>
      </root>
    </mxGraphModel>
  </diagram>
</mxfile>
